<mxfile host="app.diagrams.net" agent="Mozilla/5.0 (Windows NT 10.0; Win64; x64) AppleWebKit/537.36 (KHTML, like Gecko) Chrome/130.0.0.0 Safari/537.36" version="24.8.3">
  <diagram name="Página-1" id="yFp8hrTI4XYHxXODx5_h">
    <mxGraphModel dx="1050" dy="522" grid="1" gridSize="10" guides="1" tooltips="1" connect="1" arrows="1" fold="1" page="1" pageScale="1" pageWidth="827" pageHeight="1169" math="0" shadow="0">
      <root>
        <mxCell id="0" />
        <mxCell id="1" parent="0" />
        <mxCell id="ZD961SuASCagZ2ovSEnM-6" style="edgeStyle=orthogonalEdgeStyle;rounded=0;orthogonalLoop=1;jettySize=auto;html=1;entryX=0;entryY=0.5;entryDx=0;entryDy=0;" edge="1" parent="1" source="ZD961SuASCagZ2ovSEnM-1" target="ZD961SuASCagZ2ovSEnM-5">
          <mxGeometry relative="1" as="geometry">
            <Array as="points">
              <mxPoint x="150" y="290" />
            </Array>
          </mxGeometry>
        </mxCell>
        <mxCell id="ZD961SuASCagZ2ovSEnM-1" value="Pessoa" style="whiteSpace=wrap;html=1;align=center;" vertex="1" parent="1">
          <mxGeometry x="100" y="180" width="100" height="40" as="geometry" />
        </mxCell>
        <mxCell id="ZD961SuASCagZ2ovSEnM-8" style="edgeStyle=orthogonalEdgeStyle;rounded=0;orthogonalLoop=1;jettySize=auto;html=1;entryX=0.5;entryY=0;entryDx=0;entryDy=0;" edge="1" parent="1" source="ZD961SuASCagZ2ovSEnM-3" target="ZD961SuASCagZ2ovSEnM-5">
          <mxGeometry relative="1" as="geometry" />
        </mxCell>
        <mxCell id="ZD961SuASCagZ2ovSEnM-3" value="Banco" style="whiteSpace=wrap;html=1;align=center;" vertex="1" parent="1">
          <mxGeometry x="340" y="110" width="100" height="40" as="geometry" />
        </mxCell>
        <mxCell id="ZD961SuASCagZ2ovSEnM-7" style="edgeStyle=orthogonalEdgeStyle;rounded=0;orthogonalLoop=1;jettySize=auto;html=1;entryX=1;entryY=0.5;entryDx=0;entryDy=0;" edge="1" parent="1" source="ZD961SuASCagZ2ovSEnM-4" target="ZD961SuASCagZ2ovSEnM-5">
          <mxGeometry relative="1" as="geometry">
            <Array as="points">
              <mxPoint x="620" y="290" />
            </Array>
          </mxGeometry>
        </mxCell>
        <mxCell id="ZD961SuASCagZ2ovSEnM-4" value="Compania" style="whiteSpace=wrap;html=1;align=center;" vertex="1" parent="1">
          <mxGeometry x="580" y="220" width="100" height="40" as="geometry" />
        </mxCell>
        <mxCell id="ZD961SuASCagZ2ovSEnM-12" style="edgeStyle=orthogonalEdgeStyle;rounded=0;orthogonalLoop=1;jettySize=auto;html=1;entryX=0.5;entryY=0;entryDx=0;entryDy=0;" edge="1" parent="1" source="ZD961SuASCagZ2ovSEnM-5" target="ZD961SuASCagZ2ovSEnM-9">
          <mxGeometry relative="1" as="geometry" />
        </mxCell>
        <mxCell id="ZD961SuASCagZ2ovSEnM-5" value="U" style="ellipse;whiteSpace=wrap;html=1;aspect=fixed;" vertex="1" parent="1">
          <mxGeometry x="350" y="250" width="80" height="80" as="geometry" />
        </mxCell>
        <mxCell id="ZD961SuASCagZ2ovSEnM-9" value="Owner" style="rounded=0;whiteSpace=wrap;html=1;" vertex="1" parent="1">
          <mxGeometry x="330" y="390" width="120" height="60" as="geometry" />
        </mxCell>
        <mxCell id="ZD961SuASCagZ2ovSEnM-22" style="edgeStyle=orthogonalEdgeStyle;rounded=0;orthogonalLoop=1;jettySize=auto;html=1;entryX=0.5;entryY=0;entryDx=0;entryDy=0;" edge="1" parent="1" source="ZD961SuASCagZ2ovSEnM-14" target="ZD961SuASCagZ2ovSEnM-1">
          <mxGeometry relative="1" as="geometry" />
        </mxCell>
        <mxCell id="ZD961SuASCagZ2ovSEnM-14" value="Licença" style="ellipse;whiteSpace=wrap;html=1;align=center;fontStyle=4;" vertex="1" parent="1">
          <mxGeometry x="100" y="40" width="100" height="40" as="geometry" />
        </mxCell>
        <mxCell id="ZD961SuASCagZ2ovSEnM-21" style="edgeStyle=orthogonalEdgeStyle;rounded=0;orthogonalLoop=1;jettySize=auto;html=1;entryX=0.25;entryY=0;entryDx=0;entryDy=0;" edge="1" parent="1" source="ZD961SuASCagZ2ovSEnM-15" target="ZD961SuASCagZ2ovSEnM-1">
          <mxGeometry relative="1" as="geometry" />
        </mxCell>
        <mxCell id="ZD961SuASCagZ2ovSEnM-15" value="CPF" style="ellipse;whiteSpace=wrap;html=1;align=center;fontStyle=4;" vertex="1" parent="1">
          <mxGeometry x="10" y="100" width="100" height="40" as="geometry" />
        </mxCell>
        <mxCell id="ZD961SuASCagZ2ovSEnM-17" value="Nome" style="ellipse;whiteSpace=wrap;html=1;align=center;" vertex="1" parent="1">
          <mxGeometry x="230" y="40" width="100" height="40" as="geometry" />
        </mxCell>
        <mxCell id="ZD961SuASCagZ2ovSEnM-24" style="edgeStyle=orthogonalEdgeStyle;rounded=0;orthogonalLoop=1;jettySize=auto;html=1;entryX=1;entryY=0.25;entryDx=0;entryDy=0;" edge="1" parent="1" source="ZD961SuASCagZ2ovSEnM-18" target="ZD961SuASCagZ2ovSEnM-1">
          <mxGeometry relative="1" as="geometry" />
        </mxCell>
        <mxCell id="ZD961SuASCagZ2ovSEnM-18" value="Endereço" style="ellipse;whiteSpace=wrap;html=1;align=center;" vertex="1" parent="1">
          <mxGeometry x="240" y="170" width="100" height="40" as="geometry" />
        </mxCell>
        <mxCell id="ZD961SuASCagZ2ovSEnM-23" style="edgeStyle=orthogonalEdgeStyle;rounded=0;orthogonalLoop=1;jettySize=auto;html=1;entryX=0.6;entryY=0;entryDx=0;entryDy=0;entryPerimeter=0;" edge="1" parent="1" source="ZD961SuASCagZ2ovSEnM-17" target="ZD961SuASCagZ2ovSEnM-1">
          <mxGeometry relative="1" as="geometry">
            <Array as="points">
              <mxPoint x="280" y="90" />
              <mxPoint x="160" y="90" />
            </Array>
          </mxGeometry>
        </mxCell>
        <mxCell id="ZD961SuASCagZ2ovSEnM-25" value="Bnome" style="ellipse;whiteSpace=wrap;html=1;align=center;" vertex="1" parent="1">
          <mxGeometry x="414" y="30" width="100" height="40" as="geometry" />
        </mxCell>
        <mxCell id="ZD961SuASCagZ2ovSEnM-28" style="edgeStyle=orthogonalEdgeStyle;rounded=0;orthogonalLoop=1;jettySize=auto;html=1;entryX=1;entryY=0.5;entryDx=0;entryDy=0;" edge="1" parent="1" source="ZD961SuASCagZ2ovSEnM-26" target="ZD961SuASCagZ2ovSEnM-3">
          <mxGeometry relative="1" as="geometry">
            <Array as="points">
              <mxPoint x="580" y="90" />
              <mxPoint x="485" y="90" />
              <mxPoint x="485" y="130" />
            </Array>
          </mxGeometry>
        </mxCell>
        <mxCell id="ZD961SuASCagZ2ovSEnM-26" value="Bendereço" style="ellipse;whiteSpace=wrap;html=1;align=center;" vertex="1" parent="1">
          <mxGeometry x="530" y="40" width="100" height="40" as="geometry" />
        </mxCell>
        <mxCell id="ZD961SuASCagZ2ovSEnM-27" style="edgeStyle=orthogonalEdgeStyle;rounded=0;orthogonalLoop=1;jettySize=auto;html=1;entryX=0.644;entryY=-0.02;entryDx=0;entryDy=0;entryPerimeter=0;" edge="1" parent="1" source="ZD961SuASCagZ2ovSEnM-25" target="ZD961SuASCagZ2ovSEnM-3">
          <mxGeometry relative="1" as="geometry" />
        </mxCell>
        <mxCell id="ZD961SuASCagZ2ovSEnM-31" style="edgeStyle=orthogonalEdgeStyle;rounded=0;orthogonalLoop=1;jettySize=auto;html=1;entryX=1;entryY=0.5;entryDx=0;entryDy=0;" edge="1" parent="1" source="ZD961SuASCagZ2ovSEnM-29" target="ZD961SuASCagZ2ovSEnM-4">
          <mxGeometry relative="1" as="geometry" />
        </mxCell>
        <mxCell id="ZD961SuASCagZ2ovSEnM-29" value="Cnome" style="ellipse;whiteSpace=wrap;html=1;align=center;fontStyle=4;" vertex="1" parent="1">
          <mxGeometry x="670" y="130" width="100" height="40" as="geometry" />
        </mxCell>
        <mxCell id="ZD961SuASCagZ2ovSEnM-30" value="Cendereço" style="ellipse;whiteSpace=wrap;html=1;align=center;" vertex="1" parent="1">
          <mxGeometry x="540" y="140" width="100" height="40" as="geometry" />
        </mxCell>
        <mxCell id="ZD961SuASCagZ2ovSEnM-32" style="edgeStyle=orthogonalEdgeStyle;rounded=0;orthogonalLoop=1;jettySize=auto;html=1;entryX=0.148;entryY=-0.03;entryDx=0;entryDy=0;entryPerimeter=0;" edge="1" parent="1" source="ZD961SuASCagZ2ovSEnM-30" target="ZD961SuASCagZ2ovSEnM-4">
          <mxGeometry relative="1" as="geometry" />
        </mxCell>
      </root>
    </mxGraphModel>
  </diagram>
</mxfile>
